<svg xmlns="http://www.w3.org/2000/svg" xmlns:xlink="http://www.w3.org/1999/xlink" viewBox="0 0 1670.81 257.36"><defs><style>.cls-1{fill:url(#linear-gradient);filter:url(#luminosity-invert);}.cls-2{mask:url(#mask);}.cls-3{fill:url(#linear-gradient-2);}.cls-4{fill:#5a6169;}.cls-5{fill:url(#linear-gradient-3);}.cls-6,.cls-7,.cls-8{fill:#eae8e4;}.cls-7{font-size:50.13px;}.cls-7,.cls-8{font-family:Poppins-Light, Poppins;font-weight:300;}.cls-8{font-size:100px;}</style><linearGradient id="linear-gradient" x1="1872.2" y1="250.24" x2="1147.92" y2="66.59" gradientUnits="userSpaceOnUse"><stop offset="0"/><stop offset="0.09" stop-color="#0d0d0d"/><stop offset="0.25" stop-color="#2e2e2e"/><stop offset="0.47" stop-color="#646464"/><stop offset="0.74" stop-color="#aeaeae"/><stop offset="1" stop-color="#fff"/></linearGradient><filter id="luminosity-invert" filterUnits="userSpaceOnUse" color-interpolation-filters="sRGB"><feColorMatrix values="-1 0 0 0 1 0 -1 0 0 1 0 0 -1 0 1 0 0 0 1 0"/></filter><mask id="mask" x="1133.59" y="0" width="749.81" height="302.45" maskUnits="userSpaceOnUse"><rect class="cls-1" x="1133.59" width="696.26" height="302.45"/></mask><linearGradient id="linear-gradient-2" x1="1871.03" y1="257" x2="1247.12" y2="98.8" gradientUnits="userSpaceOnUse"><stop offset="0" stop-color="#05ed94"/><stop offset="0.02" stop-color="#05ec97"/><stop offset="0.34" stop-color="#04d6bd"/><stop offset="0.36" stop-color="#04d0b8"/><stop offset="0.5" stop-color="#039e92"/><stop offset="0.61" stop-color="#027f7a"/><stop offset="0.67" stop-color="#027371"/><stop offset="1" stop-color="#032142"/></linearGradient><linearGradient id="linear-gradient-3" x1="91.04" y1="43.93" x2="91.04" y2="233.87" xlink:href="#linear-gradient-2"/></defs><g id="Layer_6" data-name="Layer 6"><g class="cls-2"><path class="cls-3" d="M1195.3,203.85c3-13,5.89-26.11,8.88-39.31,2.38-10.54,4.65-21.15,7.49-31.83.55-2.06,3.45-4.18,5.28-6.29,2,1.57,5.22,2.88,5.82,4.76q5.61,17.72,10.19,35.68c5.06,19.91,9.76,39.9,14.69,59.88a18.2,18.2,0,0,0,1.82,3.64l1.81.05c.81-2.12,2-4.24,2.36-6.36q4-25.77,7.66-52c3.29-23.58,6.42-47.4,9.77-71.49a17.78,17.78,0,0,1,2.11-6.19c.71-1.28,2.62-2.49,4-3.74,1.45.81,3.74,1.4,4.21,2.47,1.88,4.3,3.77,8.65,4.61,13.18,3.66,19.66,6.92,39.37,10.39,59q7.26,41.26,14.65,82.43a38.54,38.54,0,0,0,2.18,6h2.06c1.14-5.17,2.83-10.37,3.36-15.56,3.24-32,6.14-64.35,9.45-97.14,2.48-24.54,5.31-49.34,8.2-74.4a50.58,50.58,0,0,1,3-11.44c.46-1.26,2.84-2.61,4.34-3.92,1.33.81,3.5,1.42,3.85,2.48,2,6.11,4.35,12.19,5.24,18.54,4.54,32.31,8.65,64.6,12.91,96.77,4.08,30.8,8.07,61.52,12.32,92.13.83,6,2.77,11.87,4.19,17.81l2.37,0c1.15-6,2.82-12,3.38-18q5.28-57.43,10.25-116.47c2.11-25.4,3.33-50.92,5.74-76.8,1.61-17.28,4.54-34.85,7.11-52.5.32-2.17,2-4.53,3-6.81l3.56-.71c1.16,2,3,3.8,3.37,6,3.1,17,6.59,34,8.72,51.24,4,32.74,7.29,65.49,10.78,98.07,2.07,19.23,3.59,38.46,6.12,57.55,2.37,17.85,5.74,35.6,8.73,53.37.2,1.16,1,2.28,3.32,3.4,1.38-6,3.25-11.94,4-17.94q3.68-27.82,6.69-56c3.19-30,5.9-60.27,9.29-90.92,2.5-22.6,5.64-45.46,8.75-68.51a50.29,50.29,0,0,1,3.52-12.61c.77-1.87,3.71-3.88,5.67-5.83,1.88,1.37,4.94,2.47,5.45,4.17,2.68,9,5.53,18,6.86,27.21,5.76,40.16,10.7,80.32,16.51,120.23,3.09,21.18,7.39,42.22,11.22,63.3.28,1.52,1.25,3,3.82,4.52,1-2.38,2.58-4.76,3-7.14,4.53-24.93,8.89-50.13,13.44-75.6q9.39-52.56,19.24-106.74a11.06,11.06,0,0,1,2.22-5.2c1.53-1.91,4.12-3.79,6.26-5.68,2.42,1.27,5.92,2.24,7,3.89a27.4,27.4,0,0,1,4.27,10.19c6.67,34.22,12.82,68.49,19.76,102.64,2.94,14.48,7.38,28.79,11.27,43.19.39,1.42,1.64,2.75,2.49,4.13h2.85c1.48-2.86,3.57-5.73,4.35-8.6,6-22,11.55-44.21,17.79-66.7,5.33-19.22,11-38.65,17.46-58.32,1-3,6.59-6.42,10.08-9.66,3.6,2.25,9.39,4.07,10.48,6.85,6.76,17.31,12.42,34.89,18.58,52.42,4.24,12.07,8.49,24.16,13.19,36.21,1.08,2.77,4,5.28,6.06,7.92l3.66-.21c2.49-3.09,5.76-6.18,7.36-9.3,8.33-16.35,16-32.89,24.74-49.62a71.07,71.07,0,0,1,11.82-16.37c5.45-5.7,15.34-7,21-2.54,7,5.43,11.76,11.57,17.78,17.37A179.68,179.68,0,0,0,1832,122c4.43,3.41,11.52,3,19.12-.83,5.41-2.74,10.45-5.65,16.46-8.22a53.83,53.83,0,0,1,15.8-3.63c-10.57,5-20.69,10.13-31.48,14.89-8.34,3.68-17.28,4-22.71.85a74.49,74.49,0,0,1-14.65-11.32c-5.82-5.69-10.39-11.66-15.94-17.36-2-2.06-5.33-3.77-10-7-4.54,4.16-8.72,6.85-10.15,9.49-8.75,16.23-16.61,32.28-25,48.15a173.09,173.09,0,0,1-12.25,19.71c-1.2,1.67-5.71,3.15-8.69,4.71-3.2-1.14-8.47-1.93-9.25-3.47-5.56-10.91-10.89-21.84-14.94-32.93-7.47-20.5-14-41.1-21-61.54-.63-1.82-2.69-3.37-4.09-5l-3.82.5c-3,7.48-7,15-8.93,22.33-8,30.5-15.06,60.52-22.9,90.16-2.32,8.78-6.22,17.56-10,26.26-.66,1.51-4.49,2.93-6.85,4.38-2.47-1.31-6.58-2.42-7.12-4-4-11.47-8.13-22.91-10.54-34.54-8.08-38.89-15.42-77.9-23.21-116.85-.61-3.05-2.5-5.86-3.79-8.78l-3.08.4c-2.18,7.74-5.13,15.53-6.38,23.11-6.35,38.48-11.92,76.33-18.18,113.67-3,18-7.1,35.9-10.81,53.64a17.81,17.81,0,0,1-3,6.82c-.86,1.18-3.58,2.13-5.46,3.19-1.59-.89-4.14-1.66-4.61-2.7-2.08-4.63-4.31-9.27-5.13-14-3.48-20-6.76-40.15-9.61-60.31-4.93-34.89-9.37-70-14.32-105-1.47-10.38-3.84-20.59-5.93-30.86a36.23,36.23,0,0,0-2.14-5.62l-2.27.29c-1.28,4.65-3.17,9.37-3.74,13.9-3.7,29.66-7.26,59-10.49,87.95-3.81,34.18-7,67.92-10.91,101.27-1.6,13.71-4.22,27.35-6.69,40.91-.47,2.54-2.54,5-3.86,7.55l-3.54.15c-1.39-2-3.5-3.84-4-5.86-2.05-7.67-4.25-15.35-5.19-23.09-4.06-33.22-7.77-66.58-11.49-100.07-3.14-28.18-5.76-56.53-9.29-84.83-2.18-17.44-5.61-34.66-8.51-52-.11-.66-.41-1.27-2.55-1.63-1.1,5.85-2.71,11.76-3.23,17.49q-4.58,50.91-8.62,100.58c-2.72,33.28-4.88,66.17-7.9,98.72-1.41,15.21-4.2,30.33-6.63,45.35-.37,2.25-2.3,4.45-3.5,6.67l-3.2.05c-1.29-2.06-3.21-4.06-3.74-6.18-2-7.84-4.08-15.69-5.11-23.6-5.06-38.91-9.63-78-14.77-117.22-3-22.89-6.65-45.71-10.21-68.57-.65-4.24-2.2-8.3-3.34-12.44l-1.84.17c-.64,1.9-1.65,3.85-1.87,5.69-2.62,21.58-5.38,43-7.52,64.16-2.84,28.15-4.91,56-7.8,83.51-1.47,14-3.87,28-6.32,41.88-.37,2.06-3.4,4.06-5.19,6.08-1.76-1.82-4.61-3.53-5.08-5.48-3.23-13.23-6.44-26.47-8.75-39.8-4.12-23.75-7.41-47.64-11.46-71.45-2.35-13.76-5.45-27.39-8.34-41-.42-2-1.57-3.88-2.39-5.82l-2,.28c-1.42,6.61-3.32,13.23-4.17,19.74-4.52,34.37-8.66,68.22-13,101.58a63.9,63.9,0,0,1-3.5,13.39c-.58,1.6-3,3.06-4.57,4.58-1.82-1.37-4.74-2.56-5.27-4.12-2.87-8.28-5.47-16.6-7.54-25-5.6-22.68-10.83-45.4-16.36-68.05-.6-2.49-2.18-4.79-3.31-7.18l-1.67.13c-.77,1.45-1.94,2.91-2.25,4.34-3.26,14.69-6.24,29.25-9.51,43.69-2.15,9.48-4.44,18.9-7.25,28.25"/></g><path class="cls-4" d="M169.14,38.75c-7.28-2.92-8.93-11.4-13.07-17.69A30.05,30.05,0,0,0,135.64,7.81C106.55,3.32,77.44,33.44,91.37,68.6,97.57,84.26,111.83,96.94,121,111c17.67,27.17,27,57,11.34,87.44-2.51,4.47-5.28,8.88-8.15,13.13A134.9,134.9,0,0,1,86.91,246l-2,1.2-.22.13h0l-4.31,2.62H197.72c-18.22-9.36-4.93-2.56-18.22-9.36-4.49-2.29-9.9-6.27-10.54-12a16.75,16.75,0,0,1,1.09-7.16c2.06-6,2.9-8.62,5-14.6,2.75-7.65,5.53-15.29,7.89-23.07,4.51-14.87,7.05-30.26,4.84-45.77a93.08,93.08,0,0,0-2.93-13.32c-3.78-12.75-9.73-22.77-16.9-33.86-1.8-2.77-3.54-5.58-5.08-8.52-2.87-5.48-3.8-9.47-1.82-15.33,2.48-7.29,7.2-8.37,15.73-11.88,7.13-2.93,8-2.81,18.74-7.27"/><path class="cls-5" d="M121.78,153.8c-.23-2.11-.55-4.19-1-6.26-2.23-11-7.25-21-13.33-30.17C103.31,111.13,98,105.89,93.4,100A157,157,0,0,1,80.08,80.5a42.13,42.13,0,0,1-4.93-22.82c.19-4.08,1.4-16.15,1.4-16.15-2.35,3.84-2.91,4.53-4.88,7.85-3.9,6.56-7.14,13.58-8.59,21.38-2.46,13.21,1.49,26.78,8,38.55,6.44,11.6,16,21,20.11,33.95.36,1.15.69,2.3,1,3.47l.12.5c.07.25.13.51.19.77s.07.3.1.44c.07.29.13.59.19.88s.12.54.17.81A65.31,65.31,0,0,1,94.29,163c0,8.23-2.33,15.34-4.06,23.39a138.92,138.92,0,0,1-12,33c-2.77,5.51-5.84,10.93-9.15,16.26-1.73,2.78-3.54,5.61-5.27,8.42-1.24,2-2.5,4-3.85,6,7.38-4,9.6-5.46,13-8a143.33,143.33,0,0,0,36.67-40.15C118.41,187.14,123.58,170.54,121.78,153.8Z"/><path class="cls-6" d="M304.8,16.61h10.47l-35.1,36.14,38.79,48H308.61l-34-42.36L265.3,68.42l-.12,32.31h-8.09V16.61h8.09V57.29Z"/><path class="cls-6" d="M366,39.23c0-9.58-7.85-16.16-17.73-16.16-7.61,0-16.18,3.23-22.6,11.61v-10c4.87-5.63,13.8-9.46,22.48-9.46,14.88,0,26.3,9.7,26.3,23.94,0,8.13-3.81,14.83-9.76,21.77l-28.2,32.55H375.6v7.3H325l.12-5.5L359.42,55C363.82,49.76,366,44.37,366,39.23Z"/><text class="cls-7" transform="translate(403.79 100.73)">Napari</text><text class="cls-8" transform="translate(254.22 218.72)">Image Autocorrelation</text></g></svg>